<svg id="Layer_1" enable-background="new 0 0 510.7 510.7" height="512" viewBox="0 0 510.7 510.7" width="512" xmlns="http://www.w3.org/2000/svg"><g><path d="m255.35 18.41c-27.48 0-53.908 4.503-78.586 12.811l-162.628 282.6c7.774 38.268 24.427 73.311 47.713 102.885l193.5 39.732 193.5-39.732c8.243-10.469 15.655-21.623 22.136-33.363l11.165-214.599c-37.365-88.345-124.843-150.334-226.8-150.334z" fill="#f5415f"/><path d="m326.694 330.32h-57.311c-8.695 0-15.744-7.049-15.744-15.744v-17.561c0-8.695 7.049-15.744 15.744-15.744h57.311c8.695 0 15.744 7.049 15.744 15.744v17.561c0 8.696-7.049 15.744-15.744 15.744z" fill="#ff6473"/><g><path d="m430.421 45.662-233.426 233.425c-2.996 2.996-7.853 2.996-10.849 0l-32.566-32.566c-2.996-2.996-2.996-7.853 0-10.849l233.426-233.425c2.996-2.996 7.853-2.996 10.849 0l32.566 32.566c2.996 2.996 2.996 7.853 0 10.849z" fill="#e8d6ff"/></g><g><path d="m426.871 81.378-168.395 168.395-66.413-46.998 184.992-171.214z" fill="#5fd2d0"/></g><g><path d="m232.662 175.955 144.393-144.394-25.765-25.765-194.16 194.16 75.581 75.581 25.765-25.765-25.814-25.814c-13.256-13.255-13.256-34.747 0-48.003z" fill="#00bec2"/></g><g><path d="m262.535 417.11h-142.864c-11.384 0-20.612-9.228-20.612-20.612 0-11.384 9.228-20.612 20.612-20.612h142.864c33.551 0 60.749-27.198 60.749-60.749v-186.237h41.224v186.238c0 56.317-45.655 101.972-101.973 101.972z" fill="#5fd2d0"/></g><g><circle cx="342.438" cy="165.037" fill="#fff" r="50.437"/></g><g><circle cx="342.438" cy="165.037" fill="none" r="50.437" stroke="#e8d6ff" stroke-miterlimit="10" stroke-width="16.49"/></g><g><circle cx="342.438" cy="165.037" fill="#265cde" r="24.369"/></g><g><path d="m160.564 337.275-1.507 7.005c-2.642 12.283 3.52 25.025 15.091 29.92 3.184 1.347 6.684 2.091 10.358 2.091h18.852c15.787 0 28.585-12.798 28.585-28.585v-10.431z" fill="#ffdc64"/></g><g><path d="m160.564 347.706v-10.431h-51.53v10.431c0 15.787 12.798 28.585 28.585 28.585h51.53c-15.787 0-28.585-12.798-28.585-28.585z" fill="#ffc305"/></g><path d="m89.784 417.11h54.913c11.384 0 20.612-9.228 20.612-20.612 0-11.384-9.228-20.612-20.612-20.612h-54.913c-11.384 0-20.612 9.228-20.612 20.612 0 11.384 9.228 20.612 20.612 20.612z" fill="#00bec2"/><path d="m481.457 167.156h-23.117c-17.38 0-31.469 14.089-31.469 31.469v152.149c0 17.38 14.089 31.469 31.469 31.469h13.24c19.07-34.963 29.915-75.057 29.915-117.687 0-34.601-7.152-67.527-20.038-97.4z" fill="#ff6473"/><path d="m9.205 264.555c0 16.873 1.71 33.345 4.944 49.264h49.449c22.6 0 40.921-18.321 40.921-40.921v-75.077c0-14.728 5.851-28.852 16.265-39.266l62.72-62.72c15.981-15.981 15.981-41.89 0-57.871l-6.738-6.738c-97.407 32.794-167.561 124.867-167.561 233.329z" fill="#ff6473"/><path d="m139.23 416.705v.019c-.051 45.464 33.13 84.068 78.055 91.048 12.406 1.928 25.118 2.928 38.065 2.928 78.507 0 148.428-36.756 193.498-93.995z" fill="#265cde"/><path d="m143.269 416.705h-81.417c45.07 57.24 114.991 93.995 193.498 93.995 13.87 0 27.464-1.17 40.709-3.375-61.721-10.274-115.682-43.493-152.79-90.62z" fill="#0037bd"/></g></svg>